# xmcd
#
# Track frame offsets: 
#        150
#        19952
#        42098
#        62479
#        77935
#        100525
#        113781
#        129213
#        150069
#        161482
#
# Disc length: 2691 seconds
#
# Revision: 0
# Processed by: cddbd v1.5.2PL0 Copyright (c) Steve Scherf et al.
# Submitted via: ExactAudioCopy v1.0b3
#
DISCID=660a810a
DTITLE=Chris Cacavas - Love's Been Re-discontinued
DYEAR=2013
DGENRE=Rock
TTITLE0=No Roses Red
TTITLE1=I Won't Feel Well
TTITLE2=Uncomplicated
TTITLE3=We Are History
TTITLE4=It's All The Same
TTITLE5=Disarray
TTITLE6=Strand By Strand
TTITLE7=The Stage
TTITLE8=On The Floor
TTITLE9=Held Onto Almost
EXTD=
EXTT0=
EXTT1=
EXTT2=
EXTT3=
EXTT4=
EXTT5=
EXTT6=
EXTT7=
EXTT8=
EXTT9=
PLAYORDER=
